<svg xmlns="http://www.w3.org/2000/svg" viewBox="0 0 97.77 84.59"><defs><style>.cls-1{fill:#75809f;}.cls-2{fill:#fff;}</style></defs><g id="Layer_2" data-name="Layer 2"><g id="Layer_1-2" data-name="Layer 1"><path class="cls-1" d="M70,23.37C69.85,18.41,68,0,48.89,0c-17,0-20.81,15.77-21.65,23L0,22.79l10,61.8H85.88l11.89-61ZM48.5,3.42c15.77,0,17.37,15.37,17.5,19.91l-34.86-.28C31.7,16.56,34.57,3.42,48.5,3.42Z"/><path class="cls-2" d="M60,52.74c0,12.25-4.54,19-12.52,19-7,0-11.8-6.59-11.91-18.5,0-12.07,5.21-18.72,12.52-18.72C55.69,34.52,60,41.28,60,52.74Zm-19.55.56c0,9.36,2.88,14.68,7.31,14.68,5,0,7.37-5.82,7.37-15,0-8.87-2.27-14.68-7.32-14.68C43.56,38.29,40.46,43.49,40.46,53.3Z"/></g></g></svg>